# xmcd
#
# Track frame offsets: 
#        182
#        23397
#        50077
#        79312
#        107615
#        132577
#        171617
#        190065
#        219735
#        262925
#        307877
#
# Disc length: 4476 seconds
#
# Revision: 2
# Processed by: cddbd v1.5.1PL2 Copyright (c) Steve Scherf et al.
# Submitted via: ExactAudioCopy v0.95a4
#
DISCID=97117a0b
DTITLE=Eric Clapton - Eric Clapton And The National Philarmonic Orches
DTITLE=tra [CD1]
DYEAR=1990
DGENRE=Rock
TTITLE0=Layla (Reprise)
TTITLE1=Crossroads
TTITLE2=Bell Bottom Blues
TTITLE3=Lay Down Sally
TTITLE4=Holy Mother
TTITLE5=I Shot the Sheriff
TTITLE6=Hard Times
TTITLE7=Can't Find My Way Home
TTITLE8=Old Love
TTITLE9=Wonderful Tonight
TTITLE10=White Room
EXTD=Boot CD of the "24 nights"
EXTT0=
EXTT1=
EXTT2=
EXTT3=
EXTT4=
EXTT5=
EXTT6=
EXTT7=
EXTT8=
EXTT9=
EXTT10=
PLAYORDER=
